leg6dof9stand_torque_states
version=1
nRows=7
nColumns=33
inDegrees=yes

# SIMM Motion File Header:
name leg6dof9stand_torque_states
datacolumns 33
datarows 7
otherdata 1
range 0.00000000 0.03714218
endheader
time	pelvis_tilt	pelvis_tx	pelvis_ty	hip_flexion_r	knee_angle_r	knee_angle_pat_r	ankle_angle_r	pelvis_tilt_u	pelvis_tx_u	pelvis_ty_u	hip_flexion_r_u	knee_angle_r_u	knee_angle_pat_r_u	ankle_angle_r_u	bifemlh_r.activation	bifemlh_r.fiber_length	bifemsh_r.activation	bifemsh_r.fiber_length	glut_max2_r.activation	glut_max2_r.fiber_length	psoas_r.activation	psoas_r.fiber_length	rect_fem_r.activation	rect_fem_r.fiber_length	vas_int_r.activation	vas_int_r.fiber_length	med_gas_r.activation	med_gas_r.fiber_length	soleus_r.activation	soleus_r.fiber_length	tib_ant_r.activation	tib_ant_r.fiber_length
      0.00000000	      1.14700421	      0.05768500	      1.06004700	     -7.62360034	     -4.48271044	     -4.48271044	      5.57780143	      0.00000000	     -0.00000000	      0.00000000	     -0.21410300	     -8.51745999	     -8.51745999	      0.00000000	      0.01000003	      0.09982988	      0.01000000	      0.19669015	      0.01000000	      0.08092134	      0.01000000	      0.11428352	      0.01000000	      0.12583810	      0.01000000	      0.08195987	      0.01000000	      0.10977726	      0.01000000	      0.09552638	      0.01000000	      0.08627113
      0.00601670	      1.14700421	      0.05768500	      1.06004700	     -7.62298810	     -4.53339282	     -4.53339282	      5.57780143	     -0.00000000	     -0.00000000	     -0.00000000	      0.41677381	     -8.32796832	     -8.32796832	      0.00000000	      0.01000003	      0.09979502	      0.01000000	      0.19666735	      0.01000000	      0.08092018	      0.01000000	      0.11428658	      0.01000000	      0.12589266	      0.01000000	      0.08200664	      0.01000000	      0.10975761	      0.01000000	      0.09552638	      0.01000000	      0.08627113
      0.01203340	      1.14700421	      0.05768500	      1.06004700	     -7.61859239	     -4.58291291	     -4.58291291	      5.57780143	     -0.00000000	     -0.00000000	     -0.00000000	      1.04362617	     -8.13166074	     -8.13166074	     -0.00000000	      0.01000003	      0.09976418	      0.01000000	      0.19664785	      0.01000000	      0.08092236	      0.01000000	      0.11428715	      0.01000000	      0.12594377	      0.01000000	      0.08205238	      0.01000000	      0.10973835	      0.01000000	      0.09552638	      0.01000000	      0.08627113
      0.01945121	      1.14700421	      0.05768500	      1.06004700	     -7.60800800	     -4.64229271	     -4.64229271	      5.57780143	     -0.00000000	     -0.00000000	     -0.00000000	      1.80849500	     -7.87528382	     -7.87528382	      0.00000000	      0.01000002	      0.09973168	      0.01000000	      0.19662107	      0.01000000	      0.08093021	      0.01000000	      0.11428327	      0.01000000	      0.12600201	      0.01000000	      0.08210728	      0.01000000	      0.10971519	      0.01000000	      0.09552638	      0.01000000	      0.08627113
      0.02534820	      1.14700421	      0.05768500	      1.06004700	     -7.59556131	     -4.68812038	     -4.68812038	      5.57780143	     -0.00000000	     -0.00000000	     -0.00000000	      2.41235205	     -7.66718465	     -7.66718465	      0.00000000	      0.01000002	      0.09971021	      0.01000000	      0.19660407	      0.01000000	      0.08094092	      0.01000000	      0.11427700	      0.01000000	      0.12604453	      0.01000000	      0.08214971	      0.01000000	      0.10969726	      0.01000000	      0.09552638	      0.01000000	      0.08627113
      0.03124519	      1.14700421	      0.05768500	      1.06004700	     -7.57956816	     -4.73270188	     -4.73270188	      5.57780143	     -0.00000000	     -0.00000000	     -0.00000000	      3.01097020	     -7.45183937	     -7.45183937	      0.00000000	      0.01000002	      0.09969259	      0.01000000	      0.19658393	      0.01000000	      0.08095566	      0.01000000	      0.11426828	      0.01000000	      0.12608370	      0.01000000	      0.08219102	      0.01000000	      0.10967976	      0.01000000	      0.09552638	      0.01000000	      0.08627113
      0.03714218	      1.14700421	      0.05768500	      1.06004700	     -7.56005681	     -4.77600520	     -4.77600520	      5.57780143	     -0.00000000	     -0.00000000	     -0.00000000	      3.60577085	     -7.23444458	     -7.23444458	      0.00000000	      0.01000002	      0.09967884	      0.01000000	      0.19656657	      0.01000000	      0.08097443	      0.01000000	      0.11425720	      0.01000000	      0.12611950	      0.01000000	      0.08223118	      0.01000000	      0.10966273	      0.01000000	      0.09552638	      0.01000000	      0.08627113
